<svg width="800" height="450" viewBox="0 0 800 450" xmlns="http://www.w3.org/2000/svg">
  <defs>
    <linearGradient id="bg1" x1="0%" y1="0%" x2="100%" y2="100%">
      <stop offset="0%" style="stop-color:#f8fafc;stop-opacity:1" />
      <stop offset="100%" style="stop-color:#e2e8f0;stop-opacity:1" />
    </linearGradient>
  </defs>
  <rect width="800" height="450" fill="url(#bg1)"/>
  <!-- Header -->
  <rect x="0" y="0" width="800" height="60" fill="#1e293b"/>
  <rect x="20" y="15" width="120" height="30" rx="4" fill="#3b82f6"/>
  <rect x="160" y="20" width="80" height="20" rx="4" fill="#475569"/>
  <rect x="260" y="20" width="80" height="20" rx="4" fill="#475569"/>
  <rect x="360" y="20" width="80" height="20" rx="4" fill="#475569"/>
  <!-- Calendar Grid -->
  <rect x="40" y="100" width="720" height="300" rx="8" fill="#ffffff" stroke="#e2e8f0" stroke-width="2"/>
  <!-- Calendar Header -->
  <rect x="40" y="100" width="720" height="40" fill="#f1f5f9"/>
  <rect x="60" y="110" width="100" height="20" rx="4" fill="#cbd5e1"/>
  <rect x="180" y="110" width="100" height="20" rx="4" fill="#cbd5e1"/>
  <rect x="300" y="110" width="100" height="20" rx="4" fill="#cbd5e1"/>
  <rect x="420" y="110" width="100" height="20" rx="4" fill="#cbd5e1"/>
  <rect x="540" y="110" width="100" height="20" rx="4" fill="#cbd5e1"/>
  <rect x="660" y="110" width="100" height="20" rx="4" fill="#cbd5e1"/>
  <!-- Calendar Days -->
  <rect x="60" y="160" width="100" height="60" rx="4" fill="#dbeafe"/>
  <rect x="180" y="160" width="100" height="60" rx="4" fill="#dbeafe"/>
  <rect x="300" y="160" width="100" height="60" rx="4" fill="#3b82f6"/>
  <rect x="420" y="160" width="100" height="60" rx="4" fill="#dbeafe"/>
  <rect x="540" y="160" width="100" height="60" rx="4" fill="#dbeafe"/>
  <rect x="660" y="160" width="100" height="60" rx="4" fill="#fef3c7"/>
  <!-- Event cards -->
  <rect x="320" y="170" width="60" height="20" rx="4" fill="#10b981"/>
  <rect x="320" y="195" width="60" height="20" rx="4" fill="#f59e0b"/>
  <text x="400" y="280" font-family="Arial" font-size="14" fill="#64748b">Agenda Inteligente</text>
</svg>

