<svg width="800" height="450" viewBox="0 0 800 450" xmlns="http://www.w3.org/2000/svg">
  <defs>
    <linearGradient id="bg4" x1="0%" y1="0%" x2="100%" y2="100%">
      <stop offset="0%" style="stop-color:#faf5ff;stop-opacity:1" />
      <stop offset="100%" style="stop-color:#f3e8ff;stop-opacity:1" />
    </linearGradient>
  </defs>
  <rect width="800" height="450" fill="url(#bg4)"/>
  <!-- Header -->
  <rect x="0" y="0" width="800" height="60" fill="#7c3aed"/>
  <rect x="20" y="15" width="150" height="30" rx="4" fill="#ffffff" opacity="0.2"/>
  <rect x="650" y="15" width="130" height="30" rx="4" fill="#a78bfa"/>
  <!-- Professional Cards -->
  <rect x="40" y="100" width="350" height="300" rx="8" fill="#ffffff" stroke="#e9d5ff" stroke-width="2"/>
  <circle cx="215" cy="160" r="40" fill="#8b5cf6"/>
  <rect x="100" y="220" width="230" height="20" rx="4" fill="#1e293b"/>
  <rect x="100" y="250" width="180" height="15" rx="4" fill="#64748b"/>
  <rect x="100" y="275" width="150" height="15" rx="4" fill="#64748b"/>
  <rect x="120" y="310" width="210" height="30" rx="4" fill="#8b5cf6"/>
  <rect x="120" y="350" width="100" height="25" rx="4" fill="#e9d5ff"/>
  
  <rect x="410" y="100" width="350" height="300" rx="8" fill="#ffffff" stroke="#e9d5ff" stroke-width="2"/>
  <circle cx="585" cy="160" r="40" fill="#a78bfa"/>
  <rect x="470" y="220" width="230" height="20" rx="4" fill="#1e293b"/>
  <rect x="470" y="250" width="180" height="15" rx="4" fill="#64748b"/>
  <rect x="470" y="275" width="150" height="15" rx="4" fill="#64748b"/>
  <rect x="490" y="310" width="210" height="30" rx="4" fill="#a78bfa"/>
  <rect x="490" y="350" width="100" height="25" rx="4" fill="#f3e8ff"/>
  
  <text x="400" y="420" font-family="Arial" font-size="14" fill="#64748b">Multi-profissionais</text>
</svg>

