<svg width="800" height="450" viewBox="0 0 800 450" xmlns="http://www.w3.org/2000/svg">
  <defs>
    <linearGradient id="bg2" x1="0%" y1="0%" x2="100%" y2="100%">
      <stop offset="0%" style="stop-color:#eff6ff;stop-opacity:1" />
      <stop offset="100%" style="stop-color:#dbeafe;stop-opacity:1" />
    </linearGradient>
  </defs>
  <rect width="800" height="450" fill="url(#bg2)"/>
  <!-- Header -->
  <rect x="0" y="0" width="800" height="60" fill="#1e40af"/>
  <rect x="20" y="15" width="150" height="30" rx="4" fill="#ffffff" opacity="0.2"/>
  <rect x="650" y="15" width="130" height="30" rx="4" fill="#60a5fa"/>
  <!-- Patient List -->
  <rect x="40" y="100" width="720" height="300" rx="8" fill="#ffffff" stroke="#bfdbfe" stroke-width="2"/>
  <!-- Patient Cards -->
  <rect x="60" y="120" width="680" height="50" rx="6" fill="#f8fafc" stroke="#e2e8f0" stroke-width="1"/>
  <circle cx="100" cy="145" r="18" fill="#3b82f6"/>
  <rect x="130" y="130" width="120" height="12" rx="4" fill="#1e293b"/>
  <rect x="130" y="148" width="200" height="10" rx="4" fill="#64748b"/>
  <rect x="600" y="135" width="120" height="20" rx="4" fill="#10b981"/>
  
  <rect x="60" y="180" width="680" height="50" rx="6" fill="#f8fafc" stroke="#e2e8f0" stroke-width="1"/>
  <circle cx="100" cy="205" r="18" fill="#8b5cf6"/>
  <rect x="130" y="190" width="120" height="12" rx="4" fill="#1e293b"/>
  <rect x="130" y="208" width="200" height="10" rx="4" fill="#64748b"/>
  <rect x="600" y="195" width="120" height="20" rx="4" fill="#10b981"/>
  
  <rect x="60" y="240" width="680" height="50" rx="6" fill="#f8fafc" stroke="#e2e8f0" stroke-width="1"/>
  <circle cx="100" cy="265" r="18" fill="#ec4899"/>
  <rect x="130" y="250" width="120" height="12" rx="4" fill="#1e293b"/>
  <rect x="130" y="268" width="200" height="10" rx="4" fill="#64748b"/>
  <rect x="600" y="255" width="120" height="20" rx="4" fill="#10b981"/>
  
  <text x="400" y="380" font-family="Arial" font-size="14" fill="#64748b">Gestão de Pacientes</text>
</svg>

