<svg width="800" height="450" viewBox="0 0 800 450" xmlns="http://www.w3.org/2000/svg">
  <defs>
    <linearGradient id="bg3" x1="0%" y1="0%" x2="100%" y2="100%">
      <stop offset="0%" style="stop-color:#ecfdf5;stop-opacity:1" />
      <stop offset="100%" style="stop-color:#d1fae5;stop-opacity:1" />
    </linearGradient>
  </defs>
  <rect width="800" height="450" fill="url(#bg3)"/>
  <!-- Header -->
  <rect x="0" y="0" width="800" height="60" fill="#059669"/>
  <rect x="20" y="15" width="120" height="30" rx="4" fill="#ffffff" opacity="0.2"/>
  <!-- Stats Cards -->
  <rect x="40" y="100" width="220" height="120" rx="8" fill="#ffffff" stroke="#10b981" stroke-width="2"/>
  <rect x="60" y="115" width="180" height="20" rx="4" fill="#d1fae5"/>
  <rect x="60" y="145" width="120" height="40" rx="4" fill="#10b981"/>
  <rect x="60" y="195" width="100" height="15" rx="4" fill="#6ee7b7"/>
  
  <rect x="290" y="100" width="220" height="120" rx="8" fill="#ffffff" stroke="#10b981" stroke-width="2"/>
  <rect x="310" y="115" width="180" height="20" rx="4" fill="#d1fae5"/>
  <rect x="310" y="145" width="120" height="40" rx="4" fill="#10b981"/>
  <rect x="310" y="195" width="100" height="15" rx="4" fill="#6ee7b7"/>
  
  <rect x="540" y="100" width="220" height="120" rx="8" fill="#ffffff" stroke="#10b981" stroke-width="2"/>
  <rect x="560" y="115" width="180" height="20" rx="4" fill="#d1fae5"/>
  <rect x="560" y="145" width="120" height="40" rx="4" fill="#10b981"/>
  <rect x="560" y="195" width="100" height="15" rx="4" fill="#6ee7b7"/>
  
  <!-- Chart -->
  <rect x="40" y="250" width="720" height="150" rx="8" fill="#ffffff" stroke="#10b981" stroke-width="2"/>
  <rect x="80" y="340" width="40" height="40" rx="4" fill="#34d399"/>
  <rect x="160" y="310" width="40" height="70" rx="4" fill="#10b981"/>
  <rect x="240" y="290" width="40" height="90" rx="4" fill="#34d399"/>
  <rect x="320" y="270" width="40" height="110" rx="4" fill="#10b981"/>
  <rect x="400" y="300" width="40" height="80" rx="4" fill="#34d399"/>
  <rect x="480" y="320" width="40" height="60" rx="4" fill="#10b981"/>
  <rect x="560" y="280" width="40" height="100" rx="4" fill="#34d399"/>
  <rect x="640" y="310" width="40" height="70" rx="4" fill="#10b981"/>
  
  <text x="400" y="420" font-family="Arial" font-size="14" fill="#64748b">Controle Financeiro</text>
</svg>

