<svg width="800" height="450" viewBox="0 0 800 450" xmlns="http://www.w3.org/2000/svg">
  <defs>
    <linearGradient id="bg6" x1="0%" y1="0%" x2="100%" y2="100%">
      <stop offset="0%" style="stop-color:#eef2ff;stop-opacity:1" />
      <stop offset="100%" style="stop-color:#e0e7ff;stop-opacity:1" />
    </linearGradient>
  </defs>
  <rect width="800" height="450" fill="url(#bg6)"/>
  
  <!-- Phone frames -->
  <rect x="150" y="80" width="180" height="320" rx="30" fill="#1e293b" stroke="#4f46e5" stroke-width="3"/>
  <rect x="165" y="100" width="150" height="280" rx="20" fill="#ffffff"/>
  <!-- Phone screen content -->
  <rect x="175" y="110" width="130" height="30" rx="4" fill="#4f46e5"/>
  <rect x="180" y="155" width="120" height="60" rx="6" fill="#e0e7ff" stroke="#4f46e5" stroke-width="2"/>
  <rect x="190" y="165" width="100" height="15" rx="4" fill="#1e293b"/>
  <rect x="190" y="185" width="80" height="12" rx="4" fill="#64748b"/>
  <rect x="190" y="202" width="60" height="12" rx="4" fill="#64748b"/>
  <rect x="180" y="225" width="120" height="60" rx="6" fill="#e0e7ff" stroke="#4f46e5" stroke-width="2"/>
  <rect x="190" y="235" width="100" height="15" rx="4" fill="#1e293b"/>
  <rect x="190" y="255" width="80" height="12" rx="4" fill="#64748b"/>
  <rect x="190" y="272" width="60" height="12" rx="4" fill="#64748b"/>
  <rect x="175" y="305" width="130" height="30" rx="4" fill="#10b981"/>
  
  <rect x="470" y="80" width="180" height="320" rx="30" fill="#1e293b" stroke="#4f46e5" stroke-width="3"/>
  <rect x="485" y="100" width="150" height="280" rx="20" fill="#ffffff"/>
  <!-- Phone screen content -->
  <rect x="495" y="110" width="130" height="30" rx="4" fill="#4f46e5"/>
  <rect x="500" y="155" width="120" height="60" rx="6" fill="#e0e7ff" stroke="#4f46e5" stroke-width="2"/>
  <rect x="510" y="165" width="100" height="15" rx="4" fill="#1e293b"/>
  <rect x="510" y="185" width="80" height="12" rx="4" fill="#64748b"/>
  <rect x="510" y="202" width="60" height="12" rx="4" fill="#64748b"/>
  <rect x="500" y="225" width="120" height="60" rx="6" fill="#e0e7ff" stroke="#4f46e5" stroke-width="2"/>
  <rect x="510" y="235" width="100" height="15" rx="4" fill="#1e293b"/>
  <rect x="510" y="255" width="80" height="12" rx="4" fill="#64748b"/>
  <rect x="510" y="272" width="60" height="12" rx="4" fill="#64748b"/>
  <rect x="495" y="305" width="130" height="30" rx="4" fill="#10b981"/>
  
  <text x="400" y="420" font-family="Arial" font-size="14" fill="#64748b">100% Responsivo</text>
</svg>

